<mxfile host="app.diagrams.net" modified="2021-12-13T07:35:08.666Z" agent="5.0 (Windows NT 10.0; Win64; x64) AppleWebKit/537.36 (KHTML, like Gecko) Chrome/96.0.4664.93 Safari/537.36 Edg/96.0.1054.53" etag="seUYmWt5On0-LmBYbWoc" version="15.0.3" type="github">
  <diagram id="jUNo7Q9Imrn9tqrWgwNH" name="Page-1">
    <mxGraphModel dx="1422" dy="762" grid="1" gridSize="10" guides="1" tooltips="1" connect="1" arrows="1" fold="1" page="1" pageScale="1" pageWidth="827" pageHeight="1169" math="0" shadow="0">
      <root>
        <mxCell id="0" />
        <mxCell id="1" parent="0" />
        <mxCell id="um_cftkv1SnKHvXDUPxB-1" value="出库业务流程图" style="text;html=1;strokeColor=none;fillColor=none;align=center;verticalAlign=middle;whiteSpace=wrap;rounded=0;fontSize=20;fontStyle=1" parent="1" vertex="1">
          <mxGeometry x="329" y="20" width="169" height="30" as="geometry" />
        </mxCell>
        <mxCell id="um_cftkv1SnKHvXDUPxB-2" value="" style="ellipse;html=1;shape=startState;fillColor=#000000;strokeColor=#ff0000;" parent="1" vertex="1">
          <mxGeometry x="50" y="170" width="30" height="30" as="geometry" />
        </mxCell>
        <mxCell id="um_cftkv1SnKHvXDUPxB-3" value="" style="edgeStyle=orthogonalEdgeStyle;html=1;verticalAlign=bottom;endArrow=open;endSize=8;strokeColor=#ff0000;rounded=0;entryX=0;entryY=0.5;entryDx=0;entryDy=0;" parent="1" source="um_cftkv1SnKHvXDUPxB-2" target="um_cftkv1SnKHvXDUPxB-4" edge="1">
          <mxGeometry relative="1" as="geometry">
            <mxPoint x="65" y="260" as="targetPoint" />
            <Array as="points">
              <mxPoint x="65" y="245" />
            </Array>
          </mxGeometry>
        </mxCell>
        <mxCell id="um_cftkv1SnKHvXDUPxB-7" value="" style="edgeStyle=orthogonalEdgeStyle;rounded=0;orthogonalLoop=1;jettySize=auto;html=1;" parent="1" source="um_cftkv1SnKHvXDUPxB-4" target="um_cftkv1SnKHvXDUPxB-6" edge="1">
          <mxGeometry relative="1" as="geometry" />
        </mxCell>
        <mxCell id="um_cftkv1SnKHvXDUPxB-4" value="&lt;font style=&quot;font-size: 20px&quot;&gt;接收出库订单&lt;/font&gt;" style="rounded=1;whiteSpace=wrap;html=1;arcSize=40;fontColor=#000000;fillColor=#ffffc0;strokeColor=#ff0000;fontSize=20;" parent="1" vertex="1">
          <mxGeometry x="130" y="210" width="162.5" height="70" as="geometry" />
        </mxCell>
        <mxCell id="um_cftkv1SnKHvXDUPxB-10" value="" style="edgeStyle=orthogonalEdgeStyle;rounded=0;orthogonalLoop=1;jettySize=auto;html=1;startArrow=none;" parent="1" source="K3RD2K_L6G9fTyEeQvmx-9" target="um_cftkv1SnKHvXDUPxB-9" edge="1">
          <mxGeometry relative="1" as="geometry" />
        </mxCell>
        <mxCell id="K3RD2K_L6G9fTyEeQvmx-3" value="" style="edgeStyle=orthogonalEdgeStyle;rounded=0;orthogonalLoop=1;jettySize=auto;html=1;" edge="1" parent="1" source="um_cftkv1SnKHvXDUPxB-6" target="K3RD2K_L6G9fTyEeQvmx-2">
          <mxGeometry relative="1" as="geometry" />
        </mxCell>
        <mxCell id="um_cftkv1SnKHvXDUPxB-6" value="根据条件筛选订单" style="rounded=1;whiteSpace=wrap;html=1;arcSize=40;fontColor=#000000;fillColor=#ffffc0;strokeColor=#ff0000;fontSize=20;" parent="1" vertex="1">
          <mxGeometry x="372.5" y="210" width="162.5" height="70" as="geometry" />
        </mxCell>
        <mxCell id="K3RD2K_L6G9fTyEeQvmx-14" value="" style="edgeStyle=orthogonalEdgeStyle;rounded=0;orthogonalLoop=1;jettySize=auto;html=1;" edge="1" parent="1" source="um_cftkv1SnKHvXDUPxB-9" target="K3RD2K_L6G9fTyEeQvmx-13">
          <mxGeometry relative="1" as="geometry" />
        </mxCell>
        <mxCell id="um_cftkv1SnKHvXDUPxB-9" value="根据波次下的订单明细构造库存列表" style="rounded=1;whiteSpace=wrap;html=1;arcSize=40;fontColor=#000000;fillColor=#ffffc0;strokeColor=#ff0000;fontSize=20;" parent="1" vertex="1">
          <mxGeometry x="640" y="360" width="162.5" height="70" as="geometry" />
        </mxCell>
        <mxCell id="K3RD2K_L6G9fTyEeQvmx-7" value="" style="edgeStyle=orthogonalEdgeStyle;rounded=0;orthogonalLoop=1;jettySize=auto;html=1;" edge="1" parent="1" source="K3RD2K_L6G9fTyEeQvmx-2" target="K3RD2K_L6G9fTyEeQvmx-6">
          <mxGeometry relative="1" as="geometry" />
        </mxCell>
        <mxCell id="K3RD2K_L6G9fTyEeQvmx-2" value="选择 规划方式，集货区等信息" style="rounded=1;whiteSpace=wrap;html=1;arcSize=40;fontColor=#000000;fillColor=#ffffc0;strokeColor=#ff0000;fontSize=20;" vertex="1" parent="1">
          <mxGeometry x="372.5" y="360" width="162.5" height="70" as="geometry" />
        </mxCell>
        <mxCell id="K3RD2K_L6G9fTyEeQvmx-4" value="&lt;font style=&quot;font-size: 17px&quot;&gt;订单组合&lt;/font&gt;" style="text;html=1;strokeColor=#b85450;fillColor=#f8cecc;align=center;verticalAlign=middle;whiteSpace=wrap;rounded=0;fontSize=14;" vertex="1" parent="1">
          <mxGeometry x="410" y="120" width="85" height="30" as="geometry" />
        </mxCell>
        <mxCell id="K3RD2K_L6G9fTyEeQvmx-5" value="&lt;font style=&quot;font-size: 17px&quot;&gt;出库模块&lt;/font&gt;" style="text;html=1;strokeColor=#b85450;fillColor=#f8cecc;align=center;verticalAlign=middle;whiteSpace=wrap;rounded=0;fontSize=14;" vertex="1" parent="1">
          <mxGeometry x="168.75" y="120" width="85" height="30" as="geometry" />
        </mxCell>
        <mxCell id="K3RD2K_L6G9fTyEeQvmx-12" style="edgeStyle=orthogonalEdgeStyle;rounded=0;orthogonalLoop=1;jettySize=auto;html=1;entryX=0;entryY=0.5;entryDx=0;entryDy=0;" edge="1" parent="1" source="K3RD2K_L6G9fTyEeQvmx-6" target="K3RD2K_L6G9fTyEeQvmx-9">
          <mxGeometry relative="1" as="geometry" />
        </mxCell>
        <mxCell id="K3RD2K_L6G9fTyEeQvmx-6" value="生成波次单，投递mq，进行库存分配" style="rounded=1;whiteSpace=wrap;html=1;arcSize=40;fontColor=#000000;fillColor=#ffffc0;strokeColor=#ff0000;fontSize=20;" vertex="1" parent="1">
          <mxGeometry x="372.5" y="510" width="162.5" height="70" as="geometry" />
        </mxCell>
        <mxCell id="K3RD2K_L6G9fTyEeQvmx-8" value="&lt;font style=&quot;font-size: 17px&quot;&gt;库存分配&lt;/font&gt;" style="text;html=1;strokeColor=#b85450;fillColor=#f8cecc;align=center;verticalAlign=middle;whiteSpace=wrap;rounded=0;fontSize=14;" vertex="1" parent="1">
          <mxGeometry x="678.75" y="120" width="85" height="30" as="geometry" />
        </mxCell>
        <mxCell id="K3RD2K_L6G9fTyEeQvmx-9" value="移除历史数据" style="rounded=1;whiteSpace=wrap;html=1;arcSize=40;fontColor=#000000;fillColor=#ffffc0;strokeColor=#ff0000;fontSize=20;" vertex="1" parent="1">
          <mxGeometry x="640" y="210" width="162.5" height="70" as="geometry" />
        </mxCell>
        <mxCell id="K3RD2K_L6G9fTyEeQvmx-16" value="" style="edgeStyle=orthogonalEdgeStyle;rounded=0;orthogonalLoop=1;jettySize=auto;html=1;" edge="1" parent="1" source="K3RD2K_L6G9fTyEeQvmx-13" target="K3RD2K_L6G9fTyEeQvmx-15">
          <mxGeometry relative="1" as="geometry" />
        </mxCell>
        <mxCell id="K3RD2K_L6G9fTyEeQvmx-13" value="锁定库存" style="rounded=1;whiteSpace=wrap;html=1;arcSize=40;fontColor=#000000;fillColor=#ffffc0;strokeColor=#ff0000;fontSize=20;" vertex="1" parent="1">
          <mxGeometry x="640" y="510" width="162.5" height="70" as="geometry" />
        </mxCell>
        <mxCell id="K3RD2K_L6G9fTyEeQvmx-18" value="" style="edgeStyle=orthogonalEdgeStyle;rounded=0;orthogonalLoop=1;jettySize=auto;html=1;" edge="1" parent="1" source="K3RD2K_L6G9fTyEeQvmx-15" target="K3RD2K_L6G9fTyEeQvmx-17">
          <mxGeometry relative="1" as="geometry" />
        </mxCell>
        <mxCell id="K3RD2K_L6G9fTyEeQvmx-15" value="存货区/拣货区分配库存" style="rounded=1;whiteSpace=wrap;html=1;arcSize=40;fontColor=#000000;fillColor=#ffffc0;strokeColor=#ff0000;fontSize=20;" vertex="1" parent="1">
          <mxGeometry x="640" y="660" width="162.5" height="70" as="geometry" />
        </mxCell>
        <mxCell id="K3RD2K_L6G9fTyEeQvmx-20" value="" style="edgeStyle=orthogonalEdgeStyle;rounded=0;orthogonalLoop=1;jettySize=auto;html=1;" edge="1" parent="1" source="K3RD2K_L6G9fTyEeQvmx-17" target="K3RD2K_L6G9fTyEeQvmx-19">
          <mxGeometry relative="1" as="geometry" />
        </mxCell>
        <mxCell id="K3RD2K_L6G9fTyEeQvmx-17" value="保存库存分配结果" style="rounded=1;whiteSpace=wrap;html=1;arcSize=40;fontColor=#000000;fillColor=#ffffc0;strokeColor=#ff0000;fontSize=20;" vertex="1" parent="1">
          <mxGeometry x="640" y="810" width="162.5" height="70" as="geometry" />
        </mxCell>
        <mxCell id="K3RD2K_L6G9fTyEeQvmx-26" value="" style="edgeStyle=orthogonalEdgeStyle;rounded=0;orthogonalLoop=1;jettySize=auto;html=1;" edge="1" parent="1" source="K3RD2K_L6G9fTyEeQvmx-19" target="K3RD2K_L6G9fTyEeQvmx-25">
          <mxGeometry relative="1" as="geometry" />
        </mxCell>
        <mxCell id="K3RD2K_L6G9fTyEeQvmx-19" value="回写业务库存分配信息" style="rounded=1;whiteSpace=wrap;html=1;arcSize=40;fontColor=#000000;fillColor=#ffffc0;strokeColor=#ff0000;fontSize=20;" vertex="1" parent="1">
          <mxGeometry x="640" y="960" width="162.5" height="70" as="geometry" />
        </mxCell>
        <mxCell id="K3RD2K_L6G9fTyEeQvmx-24" value="任务释放" style="rounded=1;whiteSpace=wrap;html=1;arcSize=40;fontColor=#000000;fillColor=#ffffc0;strokeColor=#ff0000;fontSize=20;" vertex="1" parent="1">
          <mxGeometry x="870" y="210" width="162.5" height="70" as="geometry" />
        </mxCell>
        <mxCell id="K3RD2K_L6G9fTyEeQvmx-27" style="edgeStyle=orthogonalEdgeStyle;rounded=0;orthogonalLoop=1;jettySize=auto;html=1;entryX=0;entryY=0.5;entryDx=0;entryDy=0;" edge="1" parent="1" source="K3RD2K_L6G9fTyEeQvmx-25" target="K3RD2K_L6G9fTyEeQvmx-24">
          <mxGeometry relative="1" as="geometry" />
        </mxCell>
        <mxCell id="K3RD2K_L6G9fTyEeQvmx-28" value="手工触发" style="edgeLabel;html=1;align=center;verticalAlign=middle;resizable=0;points=[];" vertex="1" connectable="0" parent="K3RD2K_L6G9fTyEeQvmx-27">
          <mxGeometry x="-0.1177" relative="1" as="geometry">
            <mxPoint x="24" y="-22" as="offset" />
          </mxGeometry>
        </mxCell>
        <mxCell id="K3RD2K_L6G9fTyEeQvmx-25" value="分配完成" style="rounded=1;whiteSpace=wrap;html=1;arcSize=40;fontColor=#000000;fillColor=#ffffc0;strokeColor=#ff0000;fontSize=20;" vertex="1" parent="1">
          <mxGeometry x="640" y="1110" width="162.5" height="70" as="geometry" />
        </mxCell>
      </root>
    </mxGraphModel>
  </diagram>
</mxfile>
